<?xml version="1.0" encoding="UTF-8"?>
<svg id="Layer_1" data-name="Layer 1" xmlns="http://www.w3.org/2000/svg" viewBox="0 0 1711.13 1044.86">
  <defs>
    <style>
      .cls-1 {
        fill: #fff;
      }
    </style>
  </defs>
  <polygon class="cls-1" points="0 1044.86 208.07 1044.86 287.58 907.77 450.65 625.02 346.51 444.56 0 1044.86"/>
  <polygon class="cls-1" points="497.29 183.35 601.86 362.95 603.1 360.81 791.35 686.98 893.68 864.43 590.58 864.43 486.54 1044.86 1206.25 1044.86 603.12 0 497.29 183.35"/>
  <path class="cls-1" d="m1492.76,651.07c25.43-8.88,49.15-19.95,70.51-32.91,30.03-18.22,56.27-40.71,77.99-66.85,21.68-26.12,38.94-56.63,51.3-90.67,12.32-34.04,18.56-73.18,18.56-116.35,0-50.08-8.99-96.2-26.71-137.08-17.78-40.99-43.58-76.05-76.68-104.2-32.97-28.04-73.84-49.99-121.46-65.22-47.42-15.14-101.11-22.82-159.59-22.82h-548.05l101.45,175.76h431.44c64.92,0,115.76,13.93,151.1,41.4,35.28,27.42,52.43,67.19,52.43,121.59,0,50.58-17.68,89.68-54.04,119.54-19.46,15.99-43.33,27.89-70.95,35.38-11.07,3-21.5,5.15-31.88,6.58-14.29,1.96-29.49,2.96-45.19,2.96h-243.9l99.78,172.86h124.5l143.11,248.13,61.31,105.71h208.16l-224.95-389.69,11.75-4.1Z"/>
</svg>